<svg width="112" height="112" viewBox="0 0 112 112" fill="none" xmlns="http://www.w3.org/2000/svg">
<g clip-path="url(#clip0_1146_6)">
<rect width="112" height="112" fill="#16181B"/>
<rect x="22" y="83" width="67" height="5" fill="url(#paint0_linear_1146_6)" fill-opacity="0.68"/>
<rect x="22" y="92" width="67" height="4" fill="url(#paint1_linear_1146_6)" fill-opacity="0.68"/>
<rect x="22" y="100" width="67" height="3" fill="url(#paint2_linear_1146_6)" fill-opacity="0.68"/>
<rect x="22" y="107" width="67" height="2" fill="url(#paint3_linear_1146_6)" fill-opacity="0.68"/>
<rect x="89" y="25" width="67" height="5" transform="rotate(-180 89 25)" fill="url(#paint4_linear_1146_6)" fill-opacity="0.68"/>
<rect x="89" y="16" width="67" height="4" transform="rotate(-180 89 16)" fill="url(#paint5_linear_1146_6)" fill-opacity="0.68"/>
<rect x="89" y="8" width="67" height="3" transform="rotate(-180 89 8)" fill="url(#paint6_linear_1146_6)" fill-opacity="0.68"/>
<rect x="89" y="1" width="67" height="2" transform="rotate(-180 89 1)" fill="url(#paint7_linear_1146_6)" fill-opacity="0.68"/>
<rect x="22" y="29" width="67" height="6" fill="url(#paint8_linear_1146_6)" fill-opacity="0.68"/>
<rect x="22" y="73" width="67" height="6" fill="url(#paint9_linear_1146_6)" fill-opacity="0.68"/>
<rect x="22" y="62" width="67" height="7" fill="url(#paint10_linear_1146_6)" fill-opacity="0.68"/>
<mask id="path-12-outside-1_1146_6" maskUnits="userSpaceOnUse" x="15" y="27" width="84" height="56" fill="black">
<rect fill="white" x="15" y="27" width="84" height="56"/>
<path d="M35.0749 31.3857C37.4426 31.3857 39.6624 31.8297 41.7341 32.7176C43.8058 33.6055 45.6239 34.8316 47.1883 36.396C48.7527 37.9604 49.9788 39.7784 50.8667 41.8502C51.7546 43.9219 52.1985 46.1205 52.1985 48.4459C52.1985 50.8136 51.7546 53.0334 50.8667 55.1051C49.9788 57.1768 48.7527 58.9949 47.1883 60.5593C45.6239 62.1237 43.8058 63.3498 41.7341 64.2377C39.6624 65.1256 37.4426 65.5695 35.0749 65.5695H29.9378V78H19.5368V31.3857H35.0749ZM35.0749 55.2319C36.0051 55.2319 36.8718 55.0628 37.6752 54.7246C38.5208 54.3441 39.2395 53.8578 39.8315 53.2659C40.4657 52.6317 40.9519 51.9129 41.2902 51.1096C41.6707 50.264 41.8609 49.3761 41.8609 48.4459C41.8609 47.5158 41.6707 46.649 41.2902 45.8457C40.9519 45.0423 40.4657 44.3447 39.8315 43.7528C39.2395 43.1186 38.5208 42.6324 37.6752 42.2941C36.8718 41.9136 36.0051 41.7233 35.0749 41.7233H29.9378V55.2319H35.0749ZM67.6558 78H57.2548V31.3857H72.7929C75.1606 31.3857 77.3804 31.8297 79.4521 32.7176C81.5239 33.6055 83.3419 34.8316 84.9063 36.396C86.4707 37.9604 87.6968 39.7784 88.5847 41.8502C89.4726 43.9219 89.9165 46.1205 89.9165 48.4459C89.9165 51.2787 89.2823 53.9001 88.0139 56.3101C86.7878 58.6778 85.1177 60.6439 83.0037 62.2082L92.0094 78.0634H80.0863L72.9832 65.5695H72.7929H67.6558V78ZM67.6558 55.2319H72.7929C73.7231 55.2319 74.5898 55.0628 75.3932 54.7246C76.2388 54.3441 76.9576 53.8578 77.5495 53.2659C78.1837 52.6317 78.6699 51.9129 79.0082 51.1096C79.3887 50.264 79.5789 49.3761 79.5789 48.4459C79.5789 47.5158 79.3887 46.649 79.0082 45.8457C78.6699 45.0423 78.1837 44.3447 77.5495 43.7528C76.9576 43.1186 76.2388 42.6324 75.3932 42.2941C74.5898 41.9136 73.7231 41.7233 72.7929 41.7233H67.6558V55.2319Z"/>
</mask>
<path d="M35.0749 31.3857C37.4426 31.3857 39.6624 31.8297 41.7341 32.7176C43.8058 33.6055 45.6239 34.8316 47.1883 36.396C48.7527 37.9604 49.9788 39.7784 50.8667 41.8502C51.7546 43.9219 52.1985 46.1205 52.1985 48.4459C52.1985 50.8136 51.7546 53.0334 50.8667 55.1051C49.9788 57.1768 48.7527 58.9949 47.1883 60.5593C45.6239 62.1237 43.8058 63.3498 41.7341 64.2377C39.6624 65.1256 37.4426 65.5695 35.0749 65.5695H29.9378V78H19.5368V31.3857H35.0749ZM35.0749 55.2319C36.0051 55.2319 36.8718 55.0628 37.6752 54.7246C38.5208 54.3441 39.2395 53.8578 39.8315 53.2659C40.4657 52.6317 40.9519 51.9129 41.2902 51.1096C41.6707 50.264 41.8609 49.3761 41.8609 48.4459C41.8609 47.5158 41.6707 46.649 41.2902 45.8457C40.9519 45.0423 40.4657 44.3447 39.8315 43.7528C39.2395 43.1186 38.5208 42.6324 37.6752 42.2941C36.8718 41.9136 36.0051 41.7233 35.0749 41.7233H29.9378V55.2319H35.0749ZM67.6558 78H57.2548V31.3857H72.7929C75.1606 31.3857 77.3804 31.8297 79.4521 32.7176C81.5239 33.6055 83.3419 34.8316 84.9063 36.396C86.4707 37.9604 87.6968 39.7784 88.5847 41.8502C89.4726 43.9219 89.9165 46.1205 89.9165 48.4459C89.9165 51.2787 89.2823 53.9001 88.0139 56.3101C86.7878 58.6778 85.1177 60.6439 83.0037 62.2082L92.0094 78.0634H80.0863L72.9832 65.5695H72.7929H67.6558V78ZM67.6558 55.2319H72.7929C73.7231 55.2319 74.5898 55.0628 75.3932 54.7246C76.2388 54.3441 76.9576 53.8578 77.5495 53.2659C78.1837 52.6317 78.6699 51.9129 79.0082 51.1096C79.3887 50.264 79.5789 49.3761 79.5789 48.4459C79.5789 47.5158 79.3887 46.649 79.0082 45.8457C78.6699 45.0423 78.1837 44.3447 77.5495 43.7528C76.9576 43.1186 76.2388 42.6324 75.3932 42.2941C74.5898 41.9136 73.7231 41.7233 72.7929 41.7233H67.6558V55.2319Z" fill="white"/>
<path d="M41.7341 32.7176L43.3098 29.041L43.3098 29.041L41.7341 32.7176ZM50.8667 41.8502L54.5433 40.2745L54.5433 40.2745L50.8667 41.8502ZM50.8667 55.1051L54.5433 56.6808L54.5433 56.6808L50.8667 55.1051ZM29.9378 65.5695V61.5695H25.9378V65.5695H29.9378ZM29.9378 78V82H33.9378V78H29.9378ZM19.5368 78H15.5368V82H19.5368V78ZM19.5368 31.3857V27.3857H15.5368V31.3857H19.5368ZM37.6752 54.7246L39.2274 58.4111L39.2722 58.3922L39.3166 58.3723L37.6752 54.7246ZM41.2902 51.1096L37.6425 49.4681L37.6225 49.5125L37.6036 49.5574L41.2902 51.1096ZM41.2902 45.8457L37.6036 47.3979L37.6377 47.4787L37.6752 47.558L41.2902 45.8457ZM39.8315 43.7528L36.9073 46.4821L37.0014 46.5829L37.1022 46.677L39.8315 43.7528ZM37.6752 42.2941L35.9628 45.9091L36.0747 45.962L36.1896 46.008L37.6752 42.2941ZM29.9378 41.7233V37.7233H25.9378V41.7233H29.9378ZM29.9378 55.2319H25.9378V59.2319H29.9378V55.2319ZM35.0749 35.3857C36.9288 35.3857 38.6095 35.7304 40.1584 36.3942L43.3098 29.041C40.7152 27.929 37.9565 27.3857 35.0749 27.3857V35.3857ZM40.1584 36.3942C41.7714 37.0854 43.1622 38.0267 44.3599 39.2244L50.0167 33.5676C48.0856 31.6365 45.8403 30.1255 43.3098 29.041L40.1584 36.3942ZM44.3599 39.2244C45.5575 40.4221 46.4988 41.8128 47.1901 43.4258L54.5433 40.2745C53.4588 37.744 51.9478 35.4986 50.0167 33.5676L44.3599 39.2244ZM47.1901 43.4258C47.8578 44.9838 48.1985 46.6446 48.1985 48.4459H56.1985C56.1985 45.5964 55.6514 42.86 54.5433 40.2745L47.1901 43.4258ZM48.1985 48.4459C48.1985 50.2998 47.8539 51.9806 47.1901 53.5294L54.5433 56.6808C55.6552 54.0862 56.1985 51.3275 56.1985 48.4459H48.1985ZM47.1901 53.5294C46.4988 55.1424 45.5575 56.5332 44.3599 57.7309L50.0167 63.3877C51.9478 61.4566 53.4588 59.2113 54.5433 56.6808L47.1901 53.5294ZM44.3599 57.7309C43.1622 58.9286 41.7714 59.8698 40.1584 60.5611L43.3098 67.9143C45.8403 66.8298 48.0856 65.3188 50.0167 63.3877L44.3599 57.7309ZM40.1584 60.5611C38.6095 61.2249 36.9288 61.5695 35.0749 61.5695V69.5695C37.9565 69.5695 40.7152 69.0263 43.3098 67.9143L40.1584 60.5611ZM35.0749 61.5695H29.9378V69.5695H35.0749V61.5695ZM25.9378 65.5695V78H33.9378V65.5695H25.9378ZM29.9378 74H19.5368V82H29.9378V74ZM23.5368 78V31.3857H15.5368V78H23.5368ZM19.5368 35.3857H35.0749V27.3857H19.5368V35.3857ZM35.0749 59.2319C36.5019 59.2319 37.9004 58.9699 39.2274 58.4111L36.1229 51.038C35.8433 51.1558 35.5082 51.2319 35.0749 51.2319V59.2319ZM39.3166 58.3723C40.5568 57.8142 41.6902 57.064 42.6599 56.0943L37.003 50.4375C36.7889 50.6517 36.4848 50.8739 36.0337 51.0769L39.3166 58.3723ZM42.6599 56.0943C43.6492 55.1051 44.4318 53.956 44.9767 52.6618L37.6036 49.5574C37.472 49.8699 37.2822 50.1583 37.003 50.4375L42.6599 56.0943ZM44.9378 52.7511C45.5513 51.3877 45.8609 49.9402 45.8609 48.4459H37.8609C37.8609 48.812 37.79 49.1403 37.6425 49.4681L44.9378 52.7511ZM45.8609 48.4459C45.8609 46.9517 45.551 45.4968 44.9051 44.1333L37.6752 47.558C37.7904 47.8012 37.8609 48.0798 37.8609 48.4459H45.8609ZM44.9767 44.2934C44.4207 42.973 43.6092 41.8071 42.5607 40.8286L37.1022 46.677C37.3222 46.8823 37.4831 47.1117 37.6036 47.3979L44.9767 44.2934ZM42.7557 41.0235C41.7424 39.9379 40.5246 39.1257 39.1607 38.5802L36.1896 46.008C36.517 46.139 36.7366 46.2993 36.9073 46.4821L42.7557 41.0235ZM39.3875 38.6792C38.024 38.0333 36.5691 37.7233 35.0749 37.7233V45.7233C35.441 45.7233 35.7197 45.7939 35.9628 45.9091L39.3875 38.6792ZM35.0749 37.7233H29.9378V45.7233H35.0749V37.7233ZM25.9378 41.7233V55.2319H33.9378V41.7233H25.9378ZM29.9378 59.2319H35.0749V51.2319H29.9378V59.2319ZM67.6558 78V82H71.6558V78H67.6558ZM57.2548 78H53.2548V82H57.2548V78ZM57.2548 31.3857V27.3857H53.2548V31.3857H57.2548ZM79.4521 32.7176L81.0278 29.041L81.0278 29.041L79.4521 32.7176ZM88.5847 41.8502L92.2613 40.2745L92.2613 40.2745L88.5847 41.8502ZM88.0139 56.3101L84.4742 54.4471L84.468 54.4589L84.4619 54.4707L88.0139 56.3101ZM83.0037 62.2082L80.6243 58.9929L77.7748 61.1015L79.5256 64.1838L83.0037 62.2082ZM92.0094 78.0634V82.0634H98.8816L95.4875 76.0879L92.0094 78.0634ZM80.0863 78.0634L76.609 80.0404L77.7592 82.0634H80.0863V78.0634ZM72.9832 65.5695L76.4605 63.5926L75.3103 61.5695H72.9832V65.5695ZM67.6558 65.5695V61.5695H63.6558V65.5695H67.6558ZM67.6558 55.2319H63.6558V59.2319H67.6558V55.2319ZM75.3932 54.7246L76.9454 58.4111L76.9903 58.3922L77.0346 58.3723L75.3932 54.7246ZM79.0082 51.1096L75.3605 49.4681L75.3405 49.5125L75.3216 49.5574L79.0082 51.1096ZM79.0082 45.8457L75.3216 47.3979L75.3557 47.4787L75.3932 47.558L79.0082 45.8457ZM77.5495 43.7528L74.6253 46.4821L74.7194 46.5829L74.8202 46.677L77.5495 43.7528ZM75.3932 42.2941L73.6808 45.9091L73.7927 45.962L73.9076 46.008L75.3932 42.2941ZM67.6558 41.7233V37.7233H63.6558V41.7233H67.6558ZM67.6558 74H57.2548V82H67.6558V74ZM61.2548 78V31.3857H53.2548V78H61.2548ZM57.2548 35.3857H72.7929V27.3857H57.2548V35.3857ZM72.7929 35.3857C74.6468 35.3857 76.3276 35.7304 77.8764 36.3942L81.0278 29.041C78.4332 27.929 75.6745 27.3857 72.7929 27.3857V35.3857ZM77.8764 36.3942C79.4894 37.0854 80.8802 38.0267 82.0779 39.2244L87.7347 33.5676C85.8036 31.6365 83.5583 30.1255 81.0278 29.041L77.8764 36.3942ZM82.0779 39.2244C83.2756 40.4221 84.2168 41.8128 84.9081 43.4258L92.2613 40.2745C91.1768 37.744 89.6658 35.4986 87.7347 33.5676L82.0779 39.2244ZM84.9081 43.4258C85.5758 44.9838 85.9165 46.6446 85.9165 48.4459H93.9165C93.9165 45.5964 93.3694 42.86 92.2613 40.2745L84.9081 43.4258ZM85.9165 48.4459C85.9165 50.6566 85.428 52.635 84.4742 54.4471L91.5536 58.1731C93.1367 55.1652 93.9165 51.9009 93.9165 48.4459H85.9165ZM84.4619 54.4707C83.5125 56.3041 82.2406 57.7968 80.6243 58.9929L85.383 65.4236C87.9948 63.4909 90.063 61.0516 91.5659 58.1495L84.4619 54.4707ZM79.5256 64.1838L88.5313 80.039L95.4875 76.0879L86.4818 60.2327L79.5256 64.1838ZM92.0094 74.0634H80.0863V82.0634H92.0094V74.0634ZM83.5636 76.0865L76.4605 63.5926L69.5059 67.5465L76.609 80.0404L83.5636 76.0865ZM72.9832 61.5695H72.7929V69.5695H72.9832V61.5695ZM72.7929 61.5695H67.6558V69.5695H72.7929V61.5695ZM63.6558 65.5695V78H71.6558V65.5695H63.6558ZM67.6558 59.2319H72.7929V51.2319H67.6558V59.2319ZM72.7929 59.2319C74.22 59.2319 75.6184 58.9699 76.9454 58.4111L73.841 51.038C73.5613 51.1558 73.2262 51.2319 72.7929 51.2319V59.2319ZM77.0346 58.3723C78.2748 57.8142 79.4082 57.064 80.3779 56.0943L74.7211 50.4375C74.5069 50.6517 74.2028 50.8739 73.7517 51.0769L77.0346 58.3723ZM80.3779 56.0943C81.3672 55.1051 82.1498 53.956 82.6947 52.6618L75.3216 49.5574C75.19 49.8699 75.0002 50.1583 74.7211 50.4375L80.3779 56.0943ZM82.6558 52.7511C83.2694 51.3877 83.5789 49.9402 83.5789 48.4459H75.5789C75.5789 48.812 75.508 49.1403 75.3605 49.4681L82.6558 52.7511ZM83.5789 48.4459C83.5789 46.9517 83.269 45.4968 82.6231 44.1333L75.3932 47.558C75.5084 47.8012 75.5789 48.0798 75.5789 48.4459H83.5789ZM82.6947 44.2934C82.1387 42.973 81.3272 41.8071 80.2788 40.8286L74.8202 46.677C75.0402 46.8823 75.2011 47.1117 75.3216 47.3979L82.6947 44.2934ZM80.4737 41.0235C79.4605 39.9379 78.2426 39.1257 76.8787 38.5802L73.9076 46.008C74.235 46.139 74.4547 46.2993 74.6253 46.4821L80.4737 41.0235ZM77.1055 38.6792C75.742 38.0333 74.2871 37.7233 72.7929 37.7233V45.7233C73.1591 45.7233 73.4377 45.7939 73.6808 45.9091L77.1055 38.6792ZM72.7929 37.7233H67.6558V45.7233H72.7929V37.7233ZM63.6558 41.7233V55.2319H71.6558V41.7233H63.6558Z" fill="#16181B" mask="url(#path-12-outside-1_1146_6)"/>
</g>
<defs>
<linearGradient id="paint0_linear_1146_6" x1="22" y1="85.5" x2="89" y2="85.5" gradientUnits="userSpaceOnUse">
<stop stop-color="white"/>
<stop offset="1" stop-color="#999999" stop-opacity="0.06"/>
</linearGradient>
<linearGradient id="paint1_linear_1146_6" x1="22" y1="94" x2="89" y2="94" gradientUnits="userSpaceOnUse">
<stop stop-color="white"/>
<stop offset="1" stop-color="#999999" stop-opacity="0.06"/>
</linearGradient>
<linearGradient id="paint2_linear_1146_6" x1="22" y1="101.5" x2="89" y2="101.5" gradientUnits="userSpaceOnUse">
<stop stop-color="white"/>
<stop offset="1" stop-color="#999999" stop-opacity="0.06"/>
</linearGradient>
<linearGradient id="paint3_linear_1146_6" x1="22" y1="108" x2="89" y2="108" gradientUnits="userSpaceOnUse">
<stop stop-color="white"/>
<stop offset="1" stop-color="#999999" stop-opacity="0.06"/>
</linearGradient>
<linearGradient id="paint4_linear_1146_6" x1="89" y1="27.5" x2="156" y2="27.5" gradientUnits="userSpaceOnUse">
<stop stop-color="white"/>
<stop offset="1" stop-color="#999999" stop-opacity="0.06"/>
</linearGradient>
<linearGradient id="paint5_linear_1146_6" x1="89" y1="18" x2="156" y2="18" gradientUnits="userSpaceOnUse">
<stop stop-color="white"/>
<stop offset="1" stop-color="#999999" stop-opacity="0.06"/>
</linearGradient>
<linearGradient id="paint6_linear_1146_6" x1="89" y1="9.5" x2="156" y2="9.5" gradientUnits="userSpaceOnUse">
<stop stop-color="white"/>
<stop offset="1" stop-color="#999999" stop-opacity="0.06"/>
</linearGradient>
<linearGradient id="paint7_linear_1146_6" x1="89" y1="2" x2="156" y2="2" gradientUnits="userSpaceOnUse">
<stop stop-color="white"/>
<stop offset="1" stop-color="#999999" stop-opacity="0.06"/>
</linearGradient>
<linearGradient id="paint8_linear_1146_6" x1="22" y1="32" x2="89" y2="32" gradientUnits="userSpaceOnUse">
<stop stop-color="white"/>
<stop offset="1" stop-color="#999999" stop-opacity="0.06"/>
</linearGradient>
<linearGradient id="paint9_linear_1146_6" x1="22" y1="76" x2="89" y2="76" gradientUnits="userSpaceOnUse">
<stop stop-color="white"/>
<stop offset="1" stop-color="#999999" stop-opacity="0.06"/>
</linearGradient>
<linearGradient id="paint10_linear_1146_6" x1="22" y1="65.5" x2="89" y2="65.5" gradientUnits="userSpaceOnUse">
<stop stop-color="white"/>
<stop offset="1" stop-color="#999999" stop-opacity="0.06"/>
</linearGradient>
<clipPath id="clip0_1146_6">
<rect width="112" height="112" fill="white"/>
</clipPath>
</defs>
</svg>
